<svg xmlns="http://www.w3.org/2000/svg" xmlns:xlink="http://www.w3.org/1999/xlink" contentStyleType="text/css" data-diagram-type="DESCRIPTION" height="761px" preserveAspectRatio="none" style="width:1492px;height:761px;background:#FFFFFF;" version="1.1" viewBox="0 0 1492 761" width="1492px" zoomAndPan="magnify"><title>&#1055;&#1083;&#1072;&#1075;&#1080;&#1085; &#1089;&#1091;&#1084;&#1084;&#1072;&#1088;&#1080;&#1079;&#1072;&#1094;&#1080;&#1080; &#1076;&#1083;&#1103; Mattermost - &#1040;&#1088;&#1093;&#1080;&#1090;&#1077;&#1082;&#1090;&#1091;&#1088;&#1072; &#1082;&#1086;&#1084;&#1087;&#1086;&#1085;&#1077;&#1085;&#1090;&#1086;&#1074;</title><defs/><g><g class="title" data-source-line="16"><text fill="#000000" font-family="Verdana" font-size="22" font-weight="bold" lengthAdjust="spacing" textLength="848.9121" x="317.3108" y="37.1182">&#1055;&#1083;&#1072;&#1075;&#1080;&#1085; &#1089;&#1091;&#1084;&#1084;&#1072;&#1088;&#1080;&#1079;&#1072;&#1094;&#1080;&#1080; &#1076;&#1083;&#1103; Mattermost - &#1040;&#1088;&#1093;&#1080;&#1090;&#1077;&#1082;&#1090;&#1091;&#1088;&#1072; &#1082;&#1086;&#1084;&#1087;&#1086;&#1085;&#1077;&#1085;&#1090;&#1086;&#1074;</text></g><!--cluster MM--><g class="cluster" data-entity="MM" data-source-line="18" data-uid="ent0002" id="cluster_MM"><path d="M13.5,58.7373 L167.8096,58.7373 A3.75,3.75 0 0 1 170.3096,61.2373 L177.3096,81.752 L375.5,81.752 A2.5,2.5 0 0 1 378,84.252 L378,145.2473 A2.5,2.5 0 0 1 375.5,147.7473 L13.5,147.7473 A2.5,2.5 0 0 1 11,145.2473 L11,61.2373 A2.5,2.5 0 0 1 13.5,58.7373" fill="#FFFFE0" style="stroke:#FFA500;stroke-width:1;"/><line style="stroke:#FFA500;stroke-width:1;" x1="11" x2="177.3096" y1="81.752" y2="81.752"/><text fill="#000000" font-family="Verdana" font-size="14" font-weight="bold" lengthAdjust="spacing" textLength="153.3096" x="15" y="74.8125">&#1057;&#1077;&#1088;&#1074;&#1077;&#1088; Mattermost</text></g><!--cluster Plugin--><g class="cluster" data-entity="Plugin" data-source-line="23" data-uid="ent0005" id="cluster_Plugin"><path d="M50.5,200.7373 L232.7959,200.7373 A3.75,3.75 0 0 1 235.2959,203.2373 L242.2959,223.752 L504.5,223.752 A2.5,2.5 0 0 1 507,226.252 L507,449.2573 A2.5,2.5 0 0 1 504.5,451.7573 L50.5,451.7573 A2.5,2.5 0 0 1 48,449.2573 L48,203.2373 A2.5,2.5 0 0 1 50.5,200.7373" fill="#FFFFE0" style="stroke:#FFA500;stroke-width:1;"/><line style="stroke:#FFA500;stroke-width:1;" x1="48" x2="242.2959" y1="223.752" y2="223.752"/><text fill="#000000" font-family="Verdana" font-size="14" font-weight="bold" lengthAdjust="spacing" textLength="181.2959" x="52" y="216.8125">&#1055;&#1083;&#1072;&#1075;&#1080;&#1085; &#1089;&#1091;&#1084;&#1084;&#1072;&#1088;&#1080;&#1079;&#1072;&#1094;&#1080;&#1080;</text></g><!--cluster LLM--><g class="cluster" data-entity="LLM" data-source-line="29" data-uid="ent0009" id="cluster_LLM"><path d="M533.5,362.7473 L678.6699,362.7473 A3.75,3.75 0 0 1 681.1699,365.2473 L688.1699,385.762 L1149.5,385.762 A2.5,2.5 0 0 1 1152,388.262 L1152,607.3573 A2.5,2.5 0 0 1 1149.5,609.8573 L533.5,609.8573 A2.5,2.5 0 0 1 531,607.3573 L531,365.2473 A2.5,2.5 0 0 1 533.5,362.7473" fill="#FFFFE0" style="stroke:#FFA500;stroke-width:1;"/><line style="stroke:#FFA500;stroke-width:1;" x1="531" x2="688.1699" y1="385.762" y2="385.762"/><text fill="#000000" font-family="Verdana" font-size="14" font-weight="bold" lengthAdjust="spacing" textLength="144.1699" x="535" y="378.8225">&#1048;&#1085;&#1090;&#1077;&#1075;&#1088;&#1072;&#1094;&#1080;&#1103; &#1089; LLM</text></g><!--entity Framework--><g class="entity" data-entity="Framework" data-source-line="19" data-uid="ent0003" id="entity_Framework"><rect fill="#ADD8E6" height="37.0146" rx="2.5" ry="2.5" style="stroke:#00008B;stroke-width:1;" width="173.3096" x="27.35" y="94.7373"/><text fill="#000000" font-family="Verdana" font-size="14" lengthAdjust="spacing" textLength="153.3096" x="37.35" y="118.8125">&#1060;&#1088;&#1077;&#1081;&#1084;&#1074;&#1086;&#1088;&#1082; &#1087;&#1083;&#1072;&#1075;&#1080;&#1085;&#1086;&#1074;</text></g><!--entity Router--><g class="entity" data-entity="Router" data-source-line="20" data-uid="ent0004" id="entity_Router"><rect fill="#ADD8E6" height="37.0146" rx="2.5" ry="2.5" style="stroke:#00008B;stroke-width:1;" width="126.7158" x="235.64" y="94.7373"/><text fill="#000000" font-family="Verdana" font-size="14" lengthAdjust="spacing" textLength="106.7158" x="245.64" y="118.8125">&#1056;&#1086;&#1091;&#1090;&#1077;&#1088; &#1082;&#1086;&#1084;&#1072;&#1085;&#1076;</text></g><!--entity Main--><g class="entity" data-entity="Main" data-source-line="24" data-uid="ent0006" id="entity_Main"><rect fill="#ADD8E6" height="37.0146" rx="2.5" ry="2.5" style="stroke:#00008B;stroke-width:1;" width="139.1914" x="64.4" y="236.7373"/><text fill="#000000" font-family="Verdana" font-size="14" lengthAdjust="spacing" textLength="119.1914" x="74.4" y="260.8125">&#1043;&#1083;&#1072;&#1074;&#1085;&#1099;&#1081; &#1084;&#1086;&#1076;&#1091;&#1083;&#1100;</text></g><!--entity Config--><g class="entity" data-entity="Config" data-source-line="25" data-uid="ent0007" id="entity_Config"><rect fill="#ADD8E6" height="37.0146" rx="2.5" ry="2.5" style="stroke:#00008B;stroke-width:1;" width="126.2441" x="364.88" y="236.7373"/><text fill="#000000" font-family="Verdana" font-size="14" lengthAdjust="spacing" textLength="106.2441" x="374.88" y="260.8125">&#1050;&#1086;&#1085;&#1092;&#1080;&#1075;&#1091;&#1088;&#1072;&#1094;&#1080;&#1103;</text></g><!--entity Handler--><g class="entity" data-entity="Handler" data-source-line="26" data-uid="ent0008" id="entity_Handler"><rect fill="#ADD8E6" height="37.0146" rx="2.5" ry="2.5" style="stroke:#00008B;stroke-width:1;" width="209.2051" x="119.4" y="398.7473"/><text fill="#000000" font-family="Verdana" font-size="14" lengthAdjust="spacing" textLength="189.2051" x="129.4" y="422.8225">&#1054;&#1073;&#1088;&#1072;&#1073;&#1086;&#1090;&#1095;&#1080;&#1082; &#1082;&#1086;&#1084;&#1072;&#1085;&#1076; + API</text></g><!--entity Interface--><g class="entity" data-entity="Interface" data-source-line="30" data-uid="ent0010" id="entity_Interface"><rect fill="#ADD8E6" height="37.0146" rx="2.5" ry="2.5" style="stroke:#00008B;stroke-width:1;" width="190.9189" x="664.54" y="398.7473"/><text fill="#000000" font-family="Verdana" font-size="14" lengthAdjust="spacing" textLength="170.9189" x="674.54" y="422.8225">&#1048;&#1085;&#1090;&#1077;&#1088;&#1092;&#1077;&#1081;&#1089; &#1087;&#1088;&#1086;&#1074;&#1072;&#1081;&#1076;&#1077;&#1088;&#1072;</text></g><!--entity Ollama--><g class="entity" data-entity="Ollama" data-source-line="32" data-uid="ent0011" id="entity_Ollama"><rect fill="#ADD8E6" height="37.0146" rx="2.5" ry="2.5" style="stroke:#00008B;stroke-width:1;" width="153.2598" x="547.37" y="556.8473"/><text fill="#000000" font-family="Verdana" font-size="14" lengthAdjust="spacing" textLength="133.2598" x="557.37" y="580.9225">&#1055;&#1088;&#1086;&#1074;&#1072;&#1081;&#1076;&#1077;&#1088; Ollama</text></g><!--entity OpenAI--><g class="entity" data-entity="OpenAI" data-source-line="33" data-uid="ent0012" id="entity_OpenAI"><rect fill="#ADD8E6" height="37.0146" rx="2.5" ry="2.5" style="stroke:#00008B;stroke-width:1;" width="156.5273" x="800.74" y="556.8473"/><text fill="#000000" font-family="Verdana" font-size="14" lengthAdjust="spacing" textLength="136.5273" x="810.74" y="580.9225">&#1055;&#1088;&#1086;&#1074;&#1072;&#1081;&#1076;&#1077;&#1088; OpenAI</text></g><g class="entity" data-entity="GMN20" data-source-line="54" data-uid="ent0021" id="entity_GMN20"><path d="M526.34,210.7473 L526.34,251.2473 L491.28,255.2473 L526.34,259.2473 L526.34,299.7439 A0,0 0 0 0 526.34,299.7439 L729.6637,299.7439 A0,0 0 0 0 729.6637,299.7439 L729.6637,220.7473 L719.6637,210.7473 L526.34,210.7473 A0,0 0 0 0 526.34,210.7473" fill="#FFFFFF" style="stroke:#000000;stroke-width:1;"/><path d="M719.6637,210.7473 L719.6637,220.7473 L729.6637,220.7473 L719.6637,210.7473" fill="#FFFFFF" style="stroke:#000000;stroke-width:1;"/><text fill="#000000" font-family="Verdana" font-size="13" font-weight="bold" lengthAdjust="spacing" textLength="151.0107" x="532.34" y="228.8171">&#1053;&#1072;&#1089;&#1090;&#1088;&#1086;&#1081;&#1082;&#1080; &#1087;&#1083;&#1072;&#1075;&#1080;&#1085;&#1072;:</text><text fill="#000000" font-family="Verdana" font-size="13" lengthAdjust="spacing" textLength="169.311" x="532.34" y="244.6164">&#8226; &#1042;&#1099;&#1073;&#1086;&#1088; &#1087;&#1088;&#1086;&#1074;&#1072;&#1081;&#1076;&#1077;&#1088;&#1072; LLM</text><text fill="#000000" font-family="Verdana" font-size="13" lengthAdjust="spacing" textLength="182.3237" x="532.34" y="260.4158">&#8226; &#1055;&#1072;&#1088;&#1072;&#1084;&#1077;&#1090;&#1088;&#1099; &#1087;&#1086;&#1076;&#1082;&#1083;&#1102;&#1095;&#1077;&#1085;&#1080;&#1103;</text><text fill="#000000" font-family="Verdana" font-size="13" lengthAdjust="spacing" textLength="153.7529" x="532.34" y="276.2151">&#8226; &#1071;&#1079;&#1099;&#1082;&#1086;&#1074;&#1099;&#1077; &#1085;&#1072;&#1089;&#1090;&#1088;&#1086;&#1081;&#1082;&#1080;</text><text fill="#000000" font-family="Verdana" font-size="13" lengthAdjust="spacing" textLength="148.5605" x="532.34" y="292.0144">&#8226; &#1057;&#1080;&#1089;&#1090;&#1077;&#1084;&#1085;&#1099;&#1077; &#1087;&#1088;&#1086;&#1084;&#1087;&#1090;&#1099;</text></g><g class="entity" data-entity="GMN23" data-source-line="62" data-uid="ent0024" id="entity_GMN23"><path d="M81.89,530.8573 L81.89,619.8539 A0,0 0 0 0 81.89,619.8539 L366.1146,619.8539 A0,0 0 0 0 366.1146,619.8539 L366.1146,540.8573 L356.1146,530.8573 L228,530.8573 L224,436.1573 L220,530.8573 L81.89,530.8573 A0,0 0 0 0 81.89,530.8573" fill="#FFFFFF" style="stroke:#000000;stroke-width:1;"/><path d="M356.1146,530.8573 L356.1146,540.8573 L366.1146,540.8573 L356.1146,530.8573" fill="#FFFFFF" style="stroke:#000000;stroke-width:1;"/><text fill="#000000" font-family="Verdana" font-size="13" font-weight="bold" lengthAdjust="spacing" textLength="154.9399" x="87.89" y="548.9271">&#1054;&#1073;&#1088;&#1072;&#1073;&#1086;&#1090;&#1095;&#1080;&#1082; &#1082;&#1086;&#1084;&#1072;&#1085;&#1076;:</text><text fill="#000000" font-family="Verdana" font-size="13" lengthAdjust="spacing" textLength="207.835" x="87.89" y="564.7264">&#8226; &#1055;&#1086;&#1083;&#1091;&#1095;&#1072;&#1077;&#1090; &#1082;&#1086;&#1084;&#1072;&#1085;&#1076;&#1091; /summary</text><text fill="#000000" font-family="Verdana" font-size="13" lengthAdjust="spacing" textLength="222.8979" x="87.89" y="580.5258">&#8226; &#1048;&#1079;&#1074;&#1083;&#1077;&#1082;&#1072;&#1077;&#1090; &#1089;&#1086;&#1086;&#1073;&#1097;&#1077;&#1085;&#1080;&#1103; &#1080;&#1079; &#1090;&#1088;&#1077;&#1076;&#1072;</text><text fill="#000000" font-family="Verdana" font-size="13" lengthAdjust="spacing" textLength="214.7539" x="87.89" y="596.3251">&#8226; &#1054;&#1090;&#1087;&#1088;&#1072;&#1074;&#1083;&#1103;&#1077;&#1090; &#1085;&#1072; &#1089;&#1091;&#1084;&#1084;&#1072;&#1088;&#1080;&#1079;&#1072;&#1094;&#1080;&#1102;</text><text fill="#000000" font-family="Verdana" font-size="13" lengthAdjust="spacing" textLength="263.2246" x="87.89" y="612.1244">&#8226; &#1042;&#1086;&#1079;&#1074;&#1088;&#1072;&#1097;&#1072;&#1077;&#1090; &#1088;&#1077;&#1079;&#1091;&#1083;&#1100;&#1090;&#1072;&#1090; &#1087;&#1086;&#1083;&#1100;&#1079;&#1086;&#1074;&#1072;&#1090;&#1077;&#1083;&#1102;</text></g><g class="entity" data-entity="GMN26" data-source-line="70" data-uid="ent0027" id="entity_GMN26"><path d="M1168.46,380.6573 L1168.46,413.2573 L855.79,417.2573 L1168.46,421.2573 L1168.46,453.8546 A0,0 0 0 0 1168.46,453.8546 L1485.5337,453.8546 A0,0 0 0 0 1485.5337,453.8546 L1485.5337,390.6573 L1475.5337,380.6573 L1168.46,380.6573 A0,0 0 0 0 1168.46,380.6573" fill="#FFFFFF" style="stroke:#000000;stroke-width:1;"/><path d="M1475.5337,380.6573 L1475.5337,390.6573 L1485.5337,390.6573 L1475.5337,380.6573" fill="#FFFFFF" style="stroke:#000000;stroke-width:1;"/><text fill="#000000" font-family="Verdana" font-size="13" font-weight="bold" lengthAdjust="spacing" textLength="181.7778" x="1174.46" y="398.7271">&#1042;&#1099;&#1073;&#1086;&#1088; LLM &#1087;&#1088;&#1086;&#1074;&#1072;&#1081;&#1076;&#1077;&#1088;&#1072;:</text><text fill="#000000" font-family="Verdana" font-size="13" lengthAdjust="spacing" textLength="296.0737" x="1174.46" y="414.5264">&#8226; &#1045;&#1076;&#1080;&#1085;&#1099;&#1081; &#1080;&#1085;&#1090;&#1077;&#1088;&#1092;&#1077;&#1081;&#1089; &#1076;&#1083;&#1103; &#1074;&#1089;&#1077;&#1093; &#1087;&#1088;&#1086;&#1074;&#1072;&#1081;&#1076;&#1077;&#1088;&#1086;&#1074;</text><text fill="#000000" font-family="Verdana" font-size="13" lengthAdjust="spacing" textLength="259.5176" x="1174.46" y="430.3258">&#8226; &#1055;&#1077;&#1088;&#1077;&#1082;&#1083;&#1102;&#1095;&#1077;&#1085;&#1080;&#1077; &#1095;&#1077;&#1088;&#1077;&#1079; &#1082;&#1086;&#1085;&#1092;&#1080;&#1075;&#1091;&#1088;&#1072;&#1094;&#1080;&#1102;</text><text fill="#000000" font-family="Verdana" font-size="13" lengthAdjust="spacing" textLength="223.7866" x="1174.46" y="446.1251">&#8226; &#1054;&#1073;&#1088;&#1072;&#1073;&#1086;&#1090;&#1082;&#1072; &#1086;&#1096;&#1080;&#1073;&#1086;&#1082; &#1087;&#1088;&#1086;&#1074;&#1072;&#1081;&#1076;&#1077;&#1088;&#1072;</text></g><g class="entity" data-entity="GMN29" data-source-line="77" data-uid="ent0030" id="entity_GMN29"><path d="M520.63,680.8473 L520.63,754.0446 A0,0 0 0 0 520.63,754.0446 L727.3624,754.0446 A0,0 0 0 0 727.3624,754.0446 L727.3624,690.8473 L717.3624,680.8473 L628,680.8473 L624,594.0973 L620,680.8473 L520.63,680.8473 A0,0 0 0 0 520.63,680.8473" fill="#FFFFFF" style="stroke:#000000;stroke-width:1;"/><path d="M717.3624,680.8473 L717.3624,690.8473 L727.3624,690.8473 L717.3624,680.8473" fill="#FFFFFF" style="stroke:#000000;stroke-width:1;"/><text fill="#000000" font-family="Verdana" font-size="13" font-weight="bold" lengthAdjust="spacing" textLength="150.7505" x="526.63" y="698.9171">&#1051;&#1086;&#1082;&#1072;&#1083;&#1100;&#1085;&#1099;&#1077; &#1084;&#1086;&#1076;&#1077;&#1083;&#1080;:</text><text fill="#000000" font-family="Verdana" font-size="13" lengthAdjust="spacing" textLength="158.3105" x="526.63" y="714.7164">&#8226; &#1056;&#1072;&#1073;&#1086;&#1090;&#1072; &#1073;&#1077;&#1079; &#1080;&#1085;&#1090;&#1077;&#1088;&#1085;&#1077;&#1090;&#1072;</text><text fill="#000000" font-family="Verdana" font-size="13" lengthAdjust="spacing" textLength="185.7324" x="526.63" y="730.5158">&#8226; &#1055;&#1086;&#1083;&#1085;&#1099;&#1081; &#1082;&#1086;&#1085;&#1090;&#1088;&#1086;&#1083;&#1100; &#1076;&#1072;&#1085;&#1085;&#1099;&#1093;</text><text fill="#000000" font-family="Verdana" font-size="13" lengthAdjust="spacing" textLength="114.0801" x="526.63" y="746.3151">&#8226; GPU &#1091;&#1089;&#1082;&#1086;&#1088;&#1077;&#1085;&#1080;&#1077;</text></g><g class="entity" data-entity="GMN32" data-source-line="84" data-uid="ent0033" id="entity_GMN32"><path d="M797.16,680.8473 L797.16,754.0446 A0,0 0 0 0 797.16,754.0446 L960.8363,754.0446 A0,0 0 0 0 960.8363,754.0446 L960.8363,690.8473 L950.8363,680.8473 L883,680.8473 L879,594.0973 L875,680.8473 L797.16,680.8473 A0,0 0 0 0 797.16,680.8473" fill="#FFFFFF" style="stroke:#000000;stroke-width:1;"/><path d="M950.8363,680.8473 L950.8363,690.8473 L960.8363,690.8473 L950.8363,680.8473" fill="#FFFFFF" style="stroke:#000000;stroke-width:1;"/><text fill="#000000" font-family="Verdana" font-size="13" font-weight="bold" lengthAdjust="spacing" textLength="142.6763" x="803.16" y="698.9171">&#1054;&#1073;&#1083;&#1072;&#1095;&#1085;&#1099;&#1077; &#1084;&#1086;&#1076;&#1077;&#1083;&#1080;:</text><text fill="#000000" font-family="Verdana" font-size="13" lengthAdjust="spacing" textLength="141.6353" x="803.16" y="714.7164">&#8226; &#1042;&#1099;&#1089;&#1086;&#1082;&#1086;&#1077; &#1082;&#1072;&#1095;&#1077;&#1089;&#1090;&#1074;&#1086;&#1095;</text><text fill="#000000" font-family="Verdana" font-size="13" lengthAdjust="spacing" textLength="121.6274" x="803.16" y="730.5158">&#8226; &#1041;&#1099;&#1089;&#1090;&#1088;&#1099;&#1077; &#1086;&#1090;&#1074;&#1077;&#1090;&#1099;</text><text fill="#000000" font-family="Verdana" font-size="13" lengthAdjust="spacing" textLength="131.2632" x="803.16" y="746.3151">&#8226; &#1058;&#1088;&#1077;&#1073;&#1091;&#1077;&#1090; API &#1082;&#1083;&#1102;&#1095;</text></g><!--link Framework to Main--><g class="link" data-entity-1="Framework" data-entity-2="Main" data-source-line="39" data-uid="lnk13" id="link_Framework_Main"><path d="M100.72,132.0373 C92.46,145.2773 84.25,163.8873 89,180.7473 C94.84,201.4873 104.7246,217.3665 115.4246,231.4765" fill="none" id="Framework-to-Main" style="stroke:#00008B;stroke-width:1;"/><polygon fill="#00008B" points="119.05,236.2573,116.7991,226.6691,116.0288,232.2733,110.4246,231.503,119.05,236.2573" style="stroke:#00008B;stroke-width:1;"/><text fill="#000000" font-family="Verdana" font-size="13" lengthAdjust="spacing" textLength="187.2686" x="90" y="177.8171">&#1057;&#1086;&#1073;&#1099;&#1090;&#1080;&#1103; &#1078;&#1080;&#1079;&#1085;&#1077;&#1085;&#1085;&#1086;&#1075;&#1086; &#1094;&#1080;&#1082;&#1083;&#1072;</text></g><!--link Router to Main--><g class="link" data-entity-1="Router" data-entity-2="Main" data-source-line="40" data-uid="lnk14" id="link_Router_Main"><path d="M298.43,132.1473 C297.09,146.6773 293.17,166.9473 282,180.7473 C260.62,207.1873 232.9191,222.7409 203.3191,234.1409" fill="none" id="Router-to-Main" style="stroke:#00008B;stroke-width:1;"/><polygon fill="#00008B" points="197.72,236.2973,207.5563,236.7954,202.3859,234.5003,204.681,229.33,197.72,236.2973" style="stroke:#00008B;stroke-width:1;"/><text fill="#000000" font-family="Verdana" font-size="13" lengthAdjust="spacing" textLength="132.2598" x="292.14" y="177.8171">&#1050;&#1086;&#1084;&#1072;&#1085;&#1076;&#1099; /summary</text></g><!--link Main to Config--><g class="link" data-entity-1="Main" data-entity-2="Config" data-source-line="41" data-uid="lnk15" id="link_Main_Config"><path d="M204.05,255.2473 C252.79,255.2473 311.26,255.2473 358.5,255.2473" fill="none" id="Main-to-Config" style="stroke:#00008B;stroke-width:1;"/><polygon fill="#00008B" points="364.5,255.2473,355.5,251.2473,359.5,255.2473,355.5,259.2473,364.5,255.2473" style="stroke:#00008B;stroke-width:1;"/><text fill="#000000" font-family="Verdana" font-size="13" lengthAdjust="spacing" textLength="125.5313" x="221.74" y="249.3171">&#1047;&#1072;&#1075;&#1088;&#1091;&#1079;&#1082;&#1072; &#1085;&#1072;&#1089;&#1090;&#1088;&#1086;&#1077;&#1082;</text></g><!--link Main to Handler--><g class="link" data-entity-1="Main" data-entity-2="Handler" data-source-line="42" data-uid="lnk16" id="link_Main_Handler"><path d="M143.98,273.9873 C161.28,304.7373 193.7085,362.3978 211.0385,393.2078" fill="none" id="Main-to-Handler" style="stroke:#00008B;stroke-width:1;"/><polygon fill="#00008B" points="213.98,398.4373,213.0541,388.6321,211.5288,394.0794,206.0814,392.554,213.98,398.4373" style="stroke:#00008B;stroke-width:1;"/><text fill="#000000" font-family="Verdana" font-size="13" lengthAdjust="spacing" textLength="106.3804" x="185.39" y="343.8171">&#1048;&#1085;&#1080;&#1094;&#1080;&#1072;&#1083;&#1080;&#1079;&#1072;&#1094;&#1080;&#1103;</text></g><!--link Handler to Interface--><g class="link" data-entity-1="Handler" data-entity-2="Interface" data-source-line="44" data-uid="lnk17" id="link_Handler_Interface"><path d="M334.94,417.2573 C432.31,417.2573 564.02,417.2573 658.31,417.2573" fill="none" id="Handler-Interface" style="stroke:#00008B;stroke-width:1;"/><polygon fill="#00008B" points="328.94,417.2573,337.94,421.2573,333.94,417.2573,337.94,413.2573,328.94,417.2573" style="stroke:#00008B;stroke-width:1;"/><polygon fill="#00008B" points="664.31,417.2573,655.31,413.2573,659.31,417.2573,655.31,421.2573,664.31,417.2573" style="stroke:#00008B;stroke-width:1;"/><text fill="#000000" font-family="Verdana" font-size="13" lengthAdjust="spacing" textLength="126.4707" x="433.57" y="411.3271">&#1043;&#1077;&#1085;&#1077;&#1088;&#1072;&#1094;&#1080;&#1103; &#1088;&#1077;&#1079;&#1102;&#1084;&#1077;</text></g><!--link Interface to Ollama--><g class="link" data-entity-1="Interface" data-entity-2="Ollama" data-source-line="47" data-uid="lnk18" id="link_Interface_Ollama"><path d="M664.38,429.2973 C630.48,438.3373 595.64,454.6273 575,483.8573 C558.2,507.6373 578.2882,533.7179 598.2782,552.5079" fill="none" id="Interface-to-Ollama" style="stroke:#00008B;stroke-width:1;stroke-dasharray:7,7;"/><polygon fill="#00008B" points="602.65,556.6173,598.8318,547.5387,599.0068,553.1928,593.3527,553.3678,602.65,556.6173" style="stroke:#00008B;stroke-width:1;"/><text fill="#000000" font-family="Verdana" font-size="13" lengthAdjust="spacing" textLength="255.3027" x="576" y="497.9271">&#171;&#1074;&#1099;&#1073;&#1088;&#1072;&#1085; &#1077;&#1089;&#1083;&#1080; llm_provider="ollama"&#187;</text></g><!--link Interface to OpenAI--><g class="link" data-entity-1="Interface" data-entity-2="OpenAI" data-source-line="48" data-uid="lnk19" id="link_Interface_OpenAI"><path d="M788.09,436.1873 C804.91,448.0673 825.74,464.9173 840,483.8573 C856.88,506.2673 866.3807,531.371 872.2907,550.641" fill="none" id="Interface-to-OpenAI" style="stroke:#00008B;stroke-width:1;stroke-dasharray:7,7;"/><polygon fill="#00008B" points="874.05,556.3773,875.2353,546.6,872.5839,551.5971,867.5869,548.9457,874.05,556.3773" style="stroke:#00008B;stroke-width:1;"/><text fill="#000000" font-family="Verdana" font-size="13" lengthAdjust="spacing" textLength="255.3535" x="851.26" y="497.9271">&#171;&#1074;&#1099;&#1073;&#1088;&#1072;&#1085; &#1077;&#1089;&#1083;&#1080; llm_provider="openai"&#187;</text></g><!--SRC=[ZLPHQzjM57xNhxZBoxQCTEyb2xI5hOMQXOqzZJ6KM75495sZo3DX3EAuQLOSucsbh7GiQSlUfpXHepYryXVk_Glx9VlEkP8ist5R0hRH_Suvt_dETu_oKRJf-8veUhORMDjRRj2qGziNwz9loi09ec-Z7SyHeRCUsK73SogGDNjzgn7ALb2_9pqPYlQc6patfH0_MqBSdK9xRcCpMlDQ3ft9iEw4vddT3hVuyI-LL4q4smrdVg8Tn_DaUogL345vCf4TXhBDQMQgMP4ReLDregvKhCvKgaP2TtHNlSLVh7Vnu0BVZ_6T2dMkhdHVrEmeSa9VRaTYIQZVzAxULwdUKuaQwZtTHL0ir51bo72Dpn4EHZZErC2oYfuMr2kL03cWpqh61M5lYrgDoNwl_W4YKPT8D50PVWy5CfP4AUCFXFyIJJfj6Mvnq4j0kqG7YNCQCS3d3Fr6jb296Xyp-P3UcTUgrsguGSxjAKSDq5fFNGf4PEeSiLVwa0lLo5c4Uq4Iw4T8ScQqeOIwpw1xCjXm6mmxLgTqg4x1VayV03wSO2y-4tTM7t3KVJkeUzDDF6UD4nGfIw0PyV1XZQdZE-UT0p6rHwGjCEeQCT0IXIunOXfBp8KU1D1gmrvtB8uycOQ9hptFzct6cf_pS4qdk6F8cv_4tR8-5kfOTymWMSS4bDL0zw5xQfLJ5KjrsGwMLbXJSLl0EXdKwg4DwbAzuK6npJZNcSe4Jsr88xBCo6UIl1XhgtlYy-sMxzlXZiN7Io5TBu3DW0Z-9ra4edLHQaW67q7c3aP5lSBvUM1U91yH1K9lq2GwCUYKbj9zoofGosMzKd6AVCeT9TM1qdMuq4SWdh1yVq0qSipkZKCKdr1DVMZcpOmX6GJkVMgDAzswjP9F3qMNb-auz-988Av3h8Nd-JysG_cJYptpnO9a-CBAodGQ7kw7fm7STYbDRWRSxXJ8c2NhpriYWOomcqan8JV6TsXnKVrTcSabejF9VH7VNbm4yB_Tr-zL3lUbG9xmBeX9SqeDip2ZSxANFi9LJGpT0lyl9jHZwWEsz8HJc5M1V4NTygrzczi_vuAUWUzPJb0NrArbUbwJKIHzQhfO0Tpr-rP7fUiJFBt26Zh02RgPWEdk-1RayETmwm029cHv3i1qChvzJugs1NbQS7i9H8cBs6CqTisy1lJMCEKWnPmLgu_AoI0_ohBjdnHbZV6xkPjZodNDlHm2oyDZ7J6GQT5Aeuot6QisDW3jnfjCKD7j6PwbnQfFPpUeUJ62T0VFzs_AHiOjXv1mFnF-eTrta1zScBdClZLAZIP6RlPHfdy56W_uBJdRpNmpbQiRgln5yMPh59RaDnjfgzAA8Y_BwgXzQaYNml3QsXjxWMrNo6TQCzS1PKWyyXzEzNuUyDNgTm9jTmZBYh10x-Z0l5IAsq1N7cA-ap_6prucDWcHYbb-kexqlyP1WVkTSERU4oxZyuHlPuvupGnFOKvoAbxIefXiXR3rFm00]--></g></svg>