<svg xmlns="http://www.w3.org/2000/svg" xmlns:xlink="http://www.w3.org/1999/xlink" contentStyleType="text/css" data-diagram-type="ACTIVITY" height="1254px" preserveAspectRatio="none" style="width:809px;height:1254px;background:#FFFFFF;" version="1.1" viewBox="0 0 809 1254" width="809px" zoomAndPan="magnify"><title>&#1055;&#1083;&#1072;&#1075;&#1080;&#1085; &#1089;&#1091;&#1084;&#1084;&#1072;&#1088;&#1080;&#1079;&#1072;&#1094;&#1080;&#1080; &#1076;&#1083;&#1103; Mattermost - &#1042;&#1085;&#1091;&#1090;&#1088;&#1077;&#1085;&#1085;&#1080;&#1081; &#1087;&#1088;&#1086;&#1094;&#1077;&#1089;&#1089;</title><defs/><g><g class="title" data-source-line="2"><text fill="#000000" font-family="Verdana" font-size="22" font-weight="bold" lengthAdjust="spacing" textLength="776.7783" x="15" y="37.1182">&#1055;&#1083;&#1072;&#1075;&#1080;&#1085; &#1089;&#1091;&#1084;&#1084;&#1072;&#1088;&#1080;&#1079;&#1072;&#1094;&#1080;&#1080; &#1076;&#1083;&#1103; Mattermost - &#1042;&#1085;&#1091;&#1090;&#1088;&#1077;&#1085;&#1085;&#1080;&#1081; &#1087;&#1088;&#1086;&#1094;&#1077;&#1089;&#1089;</text></g><ellipse cx="402.7461" cy="62.7373" fill="#FFFFFF" rx="10" ry="10" style="stroke:#000000;stroke-width:1;"/><rect fill="#FFFFFF" height="34.584" rx="12.5" ry="12.5" style="stroke:#000000;stroke-width:1;" width="275.4453" x="265.0234" y="92.7373"/><text fill="#000000" font-family="Verdana" font-size="12" lengthAdjust="spacing" textLength="255.4453" x="275.0234" y="114.8018">&#1055;&#1086;&#1083;&#1100;&#1079;&#1086;&#1074;&#1072;&#1090;&#1077;&#1083;&#1100; &#1074;&#1074;&#1086;&#1076;&#1080;&#1090; &#1082;&#1086;&#1084;&#1072;&#1085;&#1076;&#1091; /summary</text><rect fill="#FFFFFF" height="34.584" rx="12.5" ry="12.5" style="stroke:#000000;stroke-width:1;" width="224.123" x="290.6846" y="147.3213"/><text fill="#000000" font-family="Verdana" font-size="12" lengthAdjust="spacing" textLength="204.123" x="300.6846" y="169.3857">Mattermost &#1085;&#1072;&#1087;&#1088;&#1072;&#1074;&#1083;&#1103;&#1077;&#1090; &#1074; &#1087;&#1083;&#1072;&#1075;&#1080;&#1085;</text><rect fill="#FFFFFF" height="34.584" rx="12.5" ry="12.5" style="stroke:#000000;stroke-width:1;" width="218.5977" x="293.4473" y="201.9053"/><text fill="#000000" font-family="Verdana" font-size="12" lengthAdjust="spacing" textLength="198.5977" x="303.4473" y="223.9697">&#1042;&#1099;&#1079;&#1099;&#1074;&#1072;&#1077;&#1090;&#1089;&#1103; ExecuteCommand()</text><rect fill="#FFFFFF" height="34.584" rx="12.5" ry="12.5" style="stroke:#000000;stroke-width:1;" width="121.6719" x="341.9102" y="305.1736"/><text fill="#000000" font-family="Verdana" font-size="12" lengthAdjust="spacing" textLength="101.6719" x="351.9102" y="327.238">&#1042;&#1077;&#1088;&#1085;&#1091;&#1090;&#1100; &#1086;&#1096;&#1080;&#1073;&#1082;&#1091;</text><ellipse cx="402.7461" cy="378.9656" fill="none" rx="11" ry="11" style="stroke:#000000;stroke-width:1;"/><ellipse cx="402.7461" cy="378.9656" fill="#FFFFFF" rx="6" ry="6" style="stroke:#000000;stroke-width:1;"/><polygon fill="#FFFFFF" points="303.8777,256.4893,501.6145,256.4893,513.6145,268.4893,501.6145,280.4893,303.8777,280.4893,291.8777,268.4893,303.8777,256.4893" style="stroke:#000000;stroke-width:1;"/><text fill="#000000" font-family="Verdana" font-size="11" lengthAdjust="spacing" textLength="19.019" x="406.7461" y="291.5483">&#1085;&#1077;&#1090;</text><text fill="#000000" font-family="Verdana" font-size="11" lengthAdjust="spacing" textLength="197.7368" x="303.8777" y="272.864">&#1050;&#1083;&#1080;&#1077;&#1085;&#1090; &#1082;&#1086;&#1084;&#1072;&#1085;&#1076; &#1080;&#1085;&#1080;&#1094;&#1080;&#1072;&#1083;&#1080;&#1079;&#1080;&#1088;&#1086;&#1074;&#1072;&#1085;?</text><text fill="#000000" font-family="Verdana" font-size="11" lengthAdjust="spacing" textLength="13.4438" x="513.6145" y="266.1797">&#1076;&#1072;</text><rect fill="#FFFFFF" height="34.584" rx="12.5" ry="12.5" style="stroke:#000000;stroke-width:1;" width="205.0801" x="300.2061" y="431.9656"/><text fill="#000000" font-family="Verdana" font-size="12" lengthAdjust="spacing" textLength="185.0801" x="310.2061" y="454.03">&#1055;&#1072;&#1088;&#1089;&#1080;&#1085;&#1075; &#1072;&#1088;&#1075;&#1091;&#1084;&#1077;&#1085;&#1090;&#1086;&#1074; &#1082;&#1086;&#1084;&#1072;&#1085;&#1076;&#1099;</text><polygon fill="#FFFFFF" points="362.3796,486.5496,443.1125,486.5496,455.1125,498.5496,443.1125,510.5496,362.3796,510.5496,350.3796,498.5496,362.3796,486.5496" style="stroke:#000000;stroke-width:1;"/><text fill="#000000" font-family="Verdana" font-size="11" lengthAdjust="spacing" textLength="80.7329" x="362.3796" y="502.9243">&#1058;&#1080;&#1087; &#1082;&#1086;&#1084;&#1072;&#1085;&#1076;&#1099;?</text><text fill="#000000" font-family="Verdana" font-size="11" lengthAdjust="spacing" textLength="25.7007" x="324.679" y="496.24">&#1090;&#1088;&#1077;&#1076;</text><text fill="#000000" font-family="Verdana" font-size="11" lengthAdjust="spacing" textLength="33.5586" x="455.1125" y="496.24">&#1082;&#1072;&#1085;&#1072;&#1083;</text><rect fill="#FFFFFF" height="34.584" rx="12.5" ry="12.5" style="stroke:#000000;stroke-width:1;" width="255.2129" x="135.3901" y="520.5496"/><text fill="#000000" font-family="Verdana" font-size="12" lengthAdjust="spacing" textLength="235.2129" x="145.3901" y="542.614">&#1055;&#1086;&#1083;&#1091;&#1095;&#1080;&#1090;&#1100; &#1089;&#1086;&#1086;&#1073;&#1097;&#1077;&#1085;&#1080;&#1103; &#1090;&#1088;&#1077;&#1076;&#1072; &#1095;&#1077;&#1088;&#1077;&#1079; API</text><rect fill="#FFFFFF" height="34.584" rx="12.5" ry="12.5" style="stroke:#000000;stroke-width:1;" width="263.7852" x="410.603" y="520.5496"/><text fill="#000000" font-family="Verdana" font-size="12" lengthAdjust="spacing" textLength="243.7852" x="420.603" y="542.614">&#1055;&#1086;&#1083;&#1091;&#1095;&#1080;&#1090;&#1100; &#1089;&#1086;&#1086;&#1073;&#1097;&#1077;&#1085;&#1080;&#1103; &#1082;&#1072;&#1085;&#1072;&#1083;&#1072; &#1095;&#1077;&#1088;&#1077;&#1079; API</text><polygon fill="#FFFFFF" points="402.7461,561.1335,414.7461,573.1335,402.7461,585.1335,390.7461,573.1335,402.7461,561.1335" style="stroke:#000000;stroke-width:1;"/><rect fill="#FFFFFF" height="34.584" rx="12.5" ry="12.5" style="stroke:#000000;stroke-width:1;" width="290.1758" x="257.6582" y="605.1335"/><text fill="#000000" font-family="Verdana" font-size="12" lengthAdjust="spacing" textLength="270.1758" x="267.6582" y="627.198">&#1060;&#1080;&#1083;&#1100;&#1090;&#1088;&#1072;&#1094;&#1080;&#1103; &#1080; &#1092;&#1086;&#1088;&#1084;&#1072;&#1090;&#1080;&#1088;&#1086;&#1074;&#1072;&#1085;&#1080;&#1077; &#1089;&#1086;&#1086;&#1073;&#1097;&#1077;&#1085;&#1080;&#1081;</text><rect fill="#FFFFFF" height="34.584" rx="12.5" ry="12.5" style="stroke:#000000;stroke-width:1;" width="233.832" x="285.8301" y="708.4019"/><text fill="#000000" font-family="Verdana" font-size="12" lengthAdjust="spacing" textLength="213.832" x="295.8301" y="730.4663">&#1042;&#1077;&#1088;&#1085;&#1091;&#1090;&#1100; "&#1057;&#1086;&#1086;&#1073;&#1097;&#1077;&#1085;&#1080;&#1103; &#1085;&#1077; &#1085;&#1072;&#1081;&#1076;&#1077;&#1085;&#1099;"</text><ellipse cx="402.7461" cy="782.1938" fill="none" rx="11" ry="11" style="stroke:#000000;stroke-width:1;"/><ellipse cx="402.7461" cy="782.1938" fill="#FFFFFF" rx="6" ry="6" style="stroke:#000000;stroke-width:1;"/><polygon fill="#FFFFFF" points="340.5381,659.7175,464.9541,659.7175,476.9541,671.7175,464.9541,683.7175,340.5381,683.7175,328.5381,671.7175,340.5381,659.7175" style="stroke:#000000;stroke-width:1;"/><text fill="#000000" font-family="Verdana" font-size="11" lengthAdjust="spacing" textLength="19.019" x="406.7461" y="694.7766">&#1085;&#1077;&#1090;</text><text fill="#000000" font-family="Verdana" font-size="11" lengthAdjust="spacing" textLength="124.416" x="340.5381" y="676.0923">&#1057;&#1086;&#1086;&#1073;&#1097;&#1077;&#1085;&#1080;&#1103; &#1085;&#1072;&#1081;&#1076;&#1077;&#1085;&#1099;?</text><text fill="#000000" font-family="Verdana" font-size="11" lengthAdjust="spacing" textLength="13.4438" x="476.9541" y="669.408">&#1076;&#1072;</text><rect fill="#FFFFFF" height="34.584" rx="12.5" ry="12.5" style="stroke:#000000;stroke-width:1;" width="263.9316" x="270.7803" y="835.1938"/><text fill="#000000" font-family="Verdana" font-size="12" lengthAdjust="spacing" textLength="243.9316" x="280.7803" y="857.2583">&#1057;&#1086;&#1079;&#1076;&#1072;&#1085;&#1080;&#1077; &#1089;&#1090;&#1088;&#1091;&#1082;&#1090;&#1091;&#1088;&#1080;&#1088;&#1086;&#1074;&#1072;&#1085;&#1085;&#1086;&#1075;&#1086; &#1079;&#1072;&#1087;&#1088;&#1086;&#1089;&#1072;</text><rect fill="#FFFFFF" height="34.584" rx="12.5" ry="12.5" style="stroke:#000000;stroke-width:1;" width="246.1895" x="279.6514" y="889.7778"/><text fill="#000000" font-family="Verdana" font-size="12" lengthAdjust="spacing" textLength="226.1895" x="289.6514" y="911.8423">&#1054;&#1090;&#1087;&#1088;&#1072;&#1074;&#1082;&#1072; &#1074; LLM &#1087;&#1088;&#1086;&#1074;&#1072;&#1081;&#1076;&#1077;&#1088; (Ollama)</text><polygon fill="#FFFFFF" points="338.2097,944.3618,467.2825,944.3618,479.2825,956.3618,467.2825,968.3618,338.2097,968.3618,326.2097,956.3618,338.2097,944.3618" style="stroke:#000000;stroke-width:1;"/><text fill="#000000" font-family="Verdana" font-size="11" lengthAdjust="spacing" textLength="129.0728" x="338.2097" y="960.7366">LLM &#1086;&#1090;&#1074;&#1077;&#1090;&#1080;&#1083; &#1091;&#1089;&#1087;&#1077;&#1096;&#1085;&#1086;?</text><text fill="#000000" font-family="Verdana" font-size="11" lengthAdjust="spacing" textLength="19.019" x="307.1907" y="954.0522">&#1085;&#1077;&#1090;</text><text fill="#000000" font-family="Verdana" font-size="11" lengthAdjust="spacing" textLength="13.4438" x="479.2825" y="954.0522">&#1076;&#1072;</text><rect fill="#FFFFFF" height="34.584" rx="12.5" ry="12.5" style="stroke:#000000;stroke-width:1;" width="142.6074" x="234.1689" y="978.3618"/><text fill="#000000" font-family="Verdana" font-size="12" lengthAdjust="spacing" textLength="122.6074" x="244.1689" y="1000.4263">&#1051;&#1086;&#1075;&#1080;&#1088;&#1086;&#1074;&#1072;&#1090;&#1100; &#1086;&#1096;&#1080;&#1073;&#1082;&#1091;</text><rect fill="#FFFFFF" height="34.584" rx="12.5" ry="12.5" style="stroke:#000000;stroke-width:1;" width="190.0859" x="210.4297" y="1032.9458"/><text fill="#000000" font-family="Verdana" font-size="12" lengthAdjust="spacing" textLength="170.0859" x="220.4297" y="1055.0103">&#1042;&#1077;&#1088;&#1085;&#1091;&#1090;&#1100; &#1088;&#1077;&#1079;&#1077;&#1088;&#1074;&#1085;&#1086;&#1077; &#1088;&#1077;&#1079;&#1102;&#1084;&#1077;</text><rect fill="#FFFFFF" height="34.584" rx="12.5" ry="12.5" style="stroke:#000000;stroke-width:1;" width="159.0078" x="420.5156" y="978.3618"/><text fill="#000000" font-family="Verdana" font-size="12" lengthAdjust="spacing" textLength="139.0078" x="430.5156" y="1000.4263">&#1054;&#1073;&#1088;&#1072;&#1073;&#1086;&#1090;&#1082;&#1072; &#1086;&#1090;&#1074;&#1077;&#1090;&#1072; LLM</text><polygon fill="#FFFFFF" points="402.7461,1073.5298,414.7461,1085.5298,402.7461,1097.5298,390.7461,1085.5298,402.7461,1073.5298" style="stroke:#000000;stroke-width:1;"/><rect fill="#FFFFFF" height="34.584" rx="12.5" ry="12.5" style="stroke:#000000;stroke-width:1;" width="255.0781" x="275.207" y="1117.5298"/><text fill="#000000" font-family="Verdana" font-size="12" lengthAdjust="spacing" textLength="235.0781" x="285.207" y="1139.5942">&#1060;&#1086;&#1088;&#1084;&#1072;&#1090;&#1080;&#1088;&#1086;&#1074;&#1072;&#1085;&#1080;&#1077; &#1092;&#1080;&#1085;&#1072;&#1083;&#1100;&#1085;&#1086;&#1075;&#1086; &#1088;&#1077;&#1079;&#1102;&#1084;&#1077;</text><rect fill="#FFFFFF" height="34.584" rx="12.5" ry="12.5" style="stroke:#000000;stroke-width:1;" width="285.3242" x="260.084" y="1172.1138"/><text fill="#000000" font-family="Verdana" font-size="12" lengthAdjust="spacing" textLength="265.3242" x="270.084" y="1194.1782">&#1042;&#1086;&#1079;&#1074;&#1088;&#1072;&#1090; &#1101;&#1092;&#1077;&#1084;&#1077;&#1088;&#1085;&#1086;&#1075;&#1086; &#1086;&#1090;&#1074;&#1077;&#1090;&#1072; &#1087;&#1086;&#1083;&#1100;&#1079;&#1086;&#1074;&#1072;&#1090;&#1077;&#1083;&#1102;</text><ellipse cx="402.7461" cy="1237.6978" fill="none" rx="11" ry="11" style="stroke:#000000;stroke-width:1;"/><ellipse cx="402.7461" cy="1237.6978" fill="#FFFFFF" rx="6" ry="6" style="stroke:#000000;stroke-width:1;"/><line style="stroke:#000000;stroke-width:1;" x1="402.7461" x2="402.7461" y1="72.7373" y2="92.7373"/><polygon fill="#000000" points="398.7461,82.7373,402.7461,92.7373,406.7461,82.7373,402.7461,86.7373" style="stroke:#000000;stroke-width:1;"/><line style="stroke:#000000;stroke-width:1;" x1="402.7461" x2="402.7461" y1="127.3213" y2="147.3213"/><polygon fill="#000000" points="398.7461,137.3213,402.7461,147.3213,406.7461,137.3213,402.7461,141.3213" style="stroke:#000000;stroke-width:1;"/><line style="stroke:#000000;stroke-width:1;" x1="402.7461" x2="402.7461" y1="181.9053" y2="201.9053"/><polygon fill="#000000" points="398.7461,191.9053,402.7461,201.9053,406.7461,191.9053,402.7461,195.9053" style="stroke:#000000;stroke-width:1;"/><line style="stroke:#000000;stroke-width:1;" x1="402.7461" x2="402.7461" y1="339.7576" y2="367.9656"/><polygon fill="#000000" points="398.7461,357.9656,402.7461,367.9656,406.7461,357.9656,402.7461,361.9656" style="stroke:#000000;stroke-width:1;"/><line style="stroke:#000000;stroke-width:1;" x1="402.7461" x2="402.7461" y1="280.4893" y2="305.1736"/><polygon fill="#000000" points="398.7461,295.1736,402.7461,305.1736,406.7461,295.1736,402.7461,299.1736" style="stroke:#000000;stroke-width:1;"/><line style="stroke:#000000;stroke-width:1;" x1="513.6145" x2="525.6145" y1="268.4893" y2="268.4893"/><polygon fill="#000000" points="521.6145,337.9656,525.6145,347.9656,529.6145,337.9656,525.6145,341.9656" style="stroke:#000000;stroke-width:1;"/><line style="stroke:#000000;stroke-width:1;" x1="525.6145" x2="525.6145" y1="268.4893" y2="411.9656"/><line style="stroke:#000000;stroke-width:1;" x1="525.6145" x2="402.7461" y1="411.9656" y2="411.9656"/><line style="stroke:#000000;stroke-width:1;" x1="402.7461" x2="402.7461" y1="411.9656" y2="431.9656"/><polygon fill="#000000" points="398.7461,421.9656,402.7461,431.9656,406.7461,421.9656,402.7461,425.9656" style="stroke:#000000;stroke-width:1;"/><line style="stroke:#000000;stroke-width:1;" x1="402.7461" x2="402.7461" y1="236.4893" y2="256.4893"/><polygon fill="#000000" points="398.7461,246.4893,402.7461,256.4893,406.7461,246.4893,402.7461,250.4893" style="stroke:#000000;stroke-width:1;"/><line style="stroke:#000000;stroke-width:1;" x1="350.3796" x2="262.9966" y1="498.5496" y2="498.5496"/><line style="stroke:#000000;stroke-width:1;" x1="262.9966" x2="262.9966" y1="498.5496" y2="520.5496"/><polygon fill="#000000" points="258.9966,510.5496,262.9966,520.5496,266.9966,510.5496,262.9966,514.5496" style="stroke:#000000;stroke-width:1;"/><line style="stroke:#000000;stroke-width:1;" x1="455.1125" x2="542.4956" y1="498.5496" y2="498.5496"/><line style="stroke:#000000;stroke-width:1;" x1="542.4956" x2="542.4956" y1="498.5496" y2="520.5496"/><polygon fill="#000000" points="538.4956,510.5496,542.4956,520.5496,546.4956,510.5496,542.4956,514.5496" style="stroke:#000000;stroke-width:1;"/><line style="stroke:#000000;stroke-width:1;" x1="262.9966" x2="262.9966" y1="555.1335" y2="573.1335"/><line style="stroke:#000000;stroke-width:1;" x1="262.9966" x2="390.7461" y1="573.1335" y2="573.1335"/><polygon fill="#000000" points="380.7461,569.1335,390.7461,573.1335,380.7461,577.1335,384.7461,573.1335" style="stroke:#000000;stroke-width:1;"/><line style="stroke:#000000;stroke-width:1;" x1="542.4956" x2="542.4956" y1="555.1335" y2="573.1335"/><line style="stroke:#000000;stroke-width:1;" x1="542.4956" x2="414.7461" y1="573.1335" y2="573.1335"/><polygon fill="#000000" points="424.7461,569.1335,414.7461,573.1335,424.7461,577.1335,420.7461,573.1335" style="stroke:#000000;stroke-width:1;"/><line style="stroke:#000000;stroke-width:1;" x1="402.7461" x2="402.7461" y1="466.5496" y2="486.5496"/><polygon fill="#000000" points="398.7461,476.5496,402.7461,486.5496,406.7461,476.5496,402.7461,480.5496" style="stroke:#000000;stroke-width:1;"/><line style="stroke:#000000;stroke-width:1;" x1="402.7461" x2="402.7461" y1="585.1335" y2="605.1335"/><polygon fill="#000000" points="398.7461,595.1335,402.7461,605.1335,406.7461,595.1335,402.7461,599.1335" style="stroke:#000000;stroke-width:1;"/><line style="stroke:#000000;stroke-width:1;" x1="402.7461" x2="402.7461" y1="742.9858" y2="771.1938"/><polygon fill="#000000" points="398.7461,761.1938,402.7461,771.1938,406.7461,761.1938,402.7461,765.1938" style="stroke:#000000;stroke-width:1;"/><line style="stroke:#000000;stroke-width:1;" x1="402.7461" x2="402.7461" y1="683.7175" y2="708.4019"/><polygon fill="#000000" points="398.7461,698.4019,402.7461,708.4019,406.7461,698.4019,402.7461,702.4019" style="stroke:#000000;stroke-width:1;"/><line style="stroke:#000000;stroke-width:1;" x1="476.9541" x2="529.6621" y1="671.7175" y2="671.7175"/><polygon fill="#000000" points="525.6621,741.1938,529.6621,751.1938,533.6621,741.1938,529.6621,745.1938" style="stroke:#000000;stroke-width:1;"/><line style="stroke:#000000;stroke-width:1;" x1="529.6621" x2="529.6621" y1="671.7175" y2="815.1938"/><line style="stroke:#000000;stroke-width:1;" x1="529.6621" x2="402.7461" y1="815.1938" y2="815.1938"/><line style="stroke:#000000;stroke-width:1;" x1="402.7461" x2="402.7461" y1="815.1938" y2="835.1938"/><polygon fill="#000000" points="398.7461,825.1938,402.7461,835.1938,406.7461,825.1938,402.7461,829.1938" style="stroke:#000000;stroke-width:1;"/><line style="stroke:#000000;stroke-width:1;" x1="402.7461" x2="402.7461" y1="639.7175" y2="659.7175"/><polygon fill="#000000" points="398.7461,649.7175,402.7461,659.7175,406.7461,649.7175,402.7461,653.7175" style="stroke:#000000;stroke-width:1;"/><line style="stroke:#000000;stroke-width:1;" x1="402.7461" x2="402.7461" y1="869.7778" y2="889.7778"/><polygon fill="#000000" points="398.7461,879.7778,402.7461,889.7778,406.7461,879.7778,402.7461,883.7778" style="stroke:#000000;stroke-width:1;"/><line style="stroke:#000000;stroke-width:1;" x1="305.4727" x2="305.4727" y1="1012.9458" y2="1032.9458"/><polygon fill="#000000" points="301.4727,1022.9458,305.4727,1032.9458,309.4727,1022.9458,305.4727,1026.9458" style="stroke:#000000;stroke-width:1;"/><line style="stroke:#000000;stroke-width:1;" x1="326.2097" x2="305.4727" y1="956.3618" y2="956.3618"/><line style="stroke:#000000;stroke-width:1;" x1="305.4727" x2="305.4727" y1="956.3618" y2="978.3618"/><polygon fill="#000000" points="301.4727,968.3618,305.4727,978.3618,309.4727,968.3618,305.4727,972.3618" style="stroke:#000000;stroke-width:1;"/><line style="stroke:#000000;stroke-width:1;" x1="479.2825" x2="500.0195" y1="956.3618" y2="956.3618"/><line style="stroke:#000000;stroke-width:1;" x1="500.0195" x2="500.0195" y1="956.3618" y2="978.3618"/><polygon fill="#000000" points="496.0195,968.3618,500.0195,978.3618,504.0195,968.3618,500.0195,972.3618" style="stroke:#000000;stroke-width:1;"/><line style="stroke:#000000;stroke-width:1;" x1="305.4727" x2="305.4727" y1="1067.5298" y2="1085.5298"/><line style="stroke:#000000;stroke-width:1;" x1="305.4727" x2="390.7461" y1="1085.5298" y2="1085.5298"/><polygon fill="#000000" points="380.7461,1081.5298,390.7461,1085.5298,380.7461,1089.5298,384.7461,1085.5298" style="stroke:#000000;stroke-width:1;"/><line style="stroke:#000000;stroke-width:1;" x1="500.0195" x2="500.0195" y1="1012.9458" y2="1085.5298"/><line style="stroke:#000000;stroke-width:1;" x1="500.0195" x2="414.7461" y1="1085.5298" y2="1085.5298"/><polygon fill="#000000" points="424.7461,1081.5298,414.7461,1085.5298,424.7461,1089.5298,420.7461,1085.5298" style="stroke:#000000;stroke-width:1;"/><line style="stroke:#000000;stroke-width:1;" x1="402.7461" x2="402.7461" y1="924.3618" y2="944.3618"/><polygon fill="#000000" points="398.7461,934.3618,402.7461,944.3618,406.7461,934.3618,402.7461,938.3618" style="stroke:#000000;stroke-width:1;"/><line style="stroke:#000000;stroke-width:1;" x1="402.7461" x2="402.7461" y1="1097.5298" y2="1117.5298"/><polygon fill="#000000" points="398.7461,1107.5298,402.7461,1117.5298,406.7461,1107.5298,402.7461,1111.5298" style="stroke:#000000;stroke-width:1;"/><line style="stroke:#000000;stroke-width:1;" x1="402.7461" x2="402.7461" y1="1152.1138" y2="1172.1138"/><polygon fill="#000000" points="398.7461,1162.1138,402.7461,1172.1138,406.7461,1162.1138,402.7461,1166.1138" style="stroke:#000000;stroke-width:1;"/><line style="stroke:#000000;stroke-width:1;" x1="402.7461" x2="402.7461" y1="1206.6978" y2="1226.6978"/><polygon fill="#000000" points="398.7461,1216.6978,402.7461,1226.6978,406.7461,1216.6978,402.7461,1220.6978" style="stroke:#000000;stroke-width:1;"/><!--SRC=[ZLJBQjjG4DtVhvXcPIzAzz6YbD958Q7z1T4er23PmLAWtTbMw0Et2MJPGafBFq2MBIGxbV8BS_-ePyQMNn4X227TnvbpvipS-oHwxmKUdVbkfskYJkHxnB_ubXEUSi4bsQ6D-H-Un0umaUFx2T-2UCQtzegEtIZo-a4lZEWfyJMNDhOZRCsun5FmdFWEmmge3B66neIHsu-CEGHDXH3V4BFY5757065C6AIOcd5XHyGB_88TmMOsfcVXUH2u_O-EETnYncAYD0cGK0Kg85DGRp81Wg_jc7EyO9Cjq7D5hpvuxyuZxsKFSRidhRPZJEUKMlm3q4BIs1D14WpIn8L4z-GO3POvSFcyJN2qYm2bKBGD4NZnErXPW_mg-mMm2Izix60zZ7fdnlD33w0P9stZTKywfqk7uBeTAkEKj0HJBOVA4ifTVyQr-3-0tEsjhPMjwZDRQbjM8RQVnMwe0rs5PsA_QWqBM5G3E25iotIGqukthvrQza99OCUZOsuWJL5h0_uY3xI42j364sH1zW8U3hGfHzlcIy7kaV6yTkNtVHMYO8xCnD3n8sftq1masujqy71T9KOkSsl9aY4gky0tbeEsbLE9lobN96TlTPQ6d4Wxto3xkkjXftJyqT7nwi0fMWNP0RNU-BuRk7LpwwuAw5Jo58y9j4CSbmoj2S969twgaBMqnbxUzsjPLPrADPDiDMKlfOsT7Ny4VWDh9QE9wjEiDa8JoM-dFHveWmizDebUCRM7kzmYLWgHQdUDo7u7A9CroQ2sVPiU3ZNTMPUEN6kezdy0]--></g></svg>